<svg width="50.000000" height="50.000000" viewBox="0 0 50 50" fill="none" xmlns="http://www.w3.org/2000/svg" xmlns:xlink="http://www.w3.org/1999/xlink">
	<desc>
			Created with Pixso.
	</desc>
	<defs>
		<clipPath id="clip66_36">
			<rect id="git" width="50.000000" height="50.000000" fill="white" fill-opacity="0"/>
		</clipPath>
	</defs>
	<g clip-path="url(#clip66_36)">
		<path id="矢量 11" d="M33.55 49.94Q33.39 49.91 33.24 49.86C33.15 49.83 33.06 49.8 32.98 49.77C32.87 49.73 32.77 49.68 32.68 49.63C32.6 49.59 32.52 49.54 32.45 49.49C32.36 49.43 32.27 49.37 32.18 49.3C32.11 49.24 32.05 49.18 31.99 49.12C31.91 49.04 31.83 48.96 31.76 48.88C31.7 48.81 31.65 48.74 31.6 48.67C31.54 48.58 31.49 48.49 31.43 48.39C31.39 48.31 31.35 48.23 31.32 48.15C31.28 48.05 31.24 47.96 31.21 47.86C31.19 47.77 31.16 47.68 31.14 47.59C31.12 47.49 31.11 47.39 31.1 47.29C31.09 47.19 31.09 47.1 31.09 47L31.09 38.81C31.11 38.66 31.11 38.52 31.11 38.37C31.11 38.22 31.11 38.07 31.09 37.92C31.07 37.79 31.05 37.65 31.02 37.52C30.99 37.36 30.94 37.21 30.89 37.06C30.84 36.94 30.8 36.82 30.74 36.7C30.67 36.55 30.59 36.4 30.5 36.25C30.43 36.15 30.36 36.05 30.29 35.95C30.18 35.81 30.06 35.68 29.93 35.55C29.74 35.35 29.57 35.13 29.44 34.89C29.38 34.76 29.32 34.63 29.27 34.5C29.22 34.38 29.19 34.26 29.16 34.13C29.13 34 29.11 33.86 29.1 33.73C29.09 33.59 29.09 33.46 29.09 33.33C29.1 33.2 29.11 33.07 29.14 32.94C29.16 32.8 29.21 32.64 29.25 32.51C29.3 32.39 29.35 32.27 29.42 32.15C29.49 32.02 29.57 31.9 29.66 31.78C29.73 31.67 29.82 31.58 29.9 31.48C30.01 31.38 30.12 31.27 30.24 31.18C30.35 31.1 30.46 31.03 30.57 30.97C30.7 30.89 30.83 30.83 30.98 30.77C31.1 30.72 31.23 30.68 31.36 30.64C31.5 30.61 31.64 30.58 31.79 30.57C35.34 30.17 37.93 29.3 39.58 27.94C39.67 27.86 39.76 27.78 39.86 27.7C41.87 25.86 42.88 22.93 42.88 18.92Q42.88 18.6 42.86 18.28Q42.85 18.26 42.85 18.25C42.83 17.95 42.79 17.64 42.73 17.34C42.68 17.11 42.62 16.88 42.56 16.65C42.48 16.37 42.38 16.09 42.27 15.82C42.18 15.61 42.09 15.41 41.99 15.21C41.85 14.93 41.69 14.66 41.52 14.4C41.4 14.22 41.28 14.04 41.15 13.87C40.95 13.62 40.74 13.38 40.52 13.15C40.4 13.02 40.29 12.89 40.2 12.75C40.14 12.67 40.09 12.58 40.04 12.49C39.97 12.37 39.91 12.24 39.86 12.1C39.82 11.98 39.78 11.86 39.76 11.74C39.73 11.6 39.71 11.47 39.69 11.33C39.68 11.2 39.68 11.07 39.69 10.93C39.7 10.8 39.71 10.67 39.74 10.54C39.76 10.41 39.81 10.23 39.86 10.1C40.02 9.71 40.14 9.31 40.23 8.9C40.31 8.53 40.36 8.16 40.38 7.78C40.4 7.39 40.39 7 40.35 6.62C40.34 6.53 40.33 6.43 40.32 6.34C39.6 6.59 38.91 6.87 38.23 7.21C37.41 7.61 36.6 8.1 35.85 8.63C35.67 8.75 35.49 8.85 35.3 8.92C35.09 9.01 34.87 9.07 34.65 9.1C34.43 9.14 34.21 9.15 33.99 9.14C33.78 9.13 33.57 9.1 33.35 9.05C32.62 8.85 31.88 8.69 31.14 8.56C30.77 8.49 30.4 8.44 30.02 8.39C29.48 8.32 28.94 8.26 28.39 8.23C27.81 8.19 27.22 8.17 26.63 8.17C26.05 8.17 25.46 8.19 24.88 8.23C24.33 8.26 23.79 8.32 23.25 8.39C22.63 8.47 22.01 8.57 21.4 8.7C20.91 8.8 20.41 8.91 19.92 9.05C19.68 9.11 19.44 9.14 19.2 9.15C19.01 9.15 18.82 9.14 18.62 9.1C18.4 9.07 18.18 9.01 17.97 8.92C17.78 8.85 17.56 8.73 17.39 8.61C16.64 8.07 15.85 7.59 15.03 7.19C14.37 6.86 13.68 6.58 12.97 6.34C12.96 6.41 12.95 6.48 12.95 6.55C12.91 6.91 12.91 7.28 12.93 7.65C12.95 8.01 13 8.37 13.07 8.72C13.16 9.1 13.28 9.52 13.43 9.89C13.47 10.02 13.51 10.16 13.53 10.29C13.56 10.42 13.57 10.55 13.58 10.68C13.59 10.82 13.59 10.95 13.57 11.08C13.56 11.22 13.54 11.35 13.51 11.49C13.48 11.61 13.45 11.73 13.4 11.85C13.36 11.99 13.3 12.12 13.23 12.24C13.17 12.35 13.1 12.46 13.03 12.56C12.95 12.68 12.85 12.79 12.75 12.9C12.43 13.23 12.13 13.58 11.87 13.95C11.82 14.03 11.76 14.11 11.71 14.19C11.54 14.45 11.38 14.73 11.24 15.01C11.14 15.21 11.04 15.43 10.96 15.64C10.85 15.92 10.75 16.2 10.67 16.49C10.61 16.73 10.55 16.97 10.51 17.21C10.46 17.49 10.43 17.76 10.41 18.04C10.39 18.31 10.38 18.59 10.39 18.86C10.39 22.81 11.38 25.71 13.37 27.55C13.48 27.65 13.58 27.75 13.7 27.84C15.35 29.21 17.96 30.1 21.51 30.51C21.7 30.53 21.9 30.57 22.09 30.63C22.17 30.66 22.25 30.69 22.32 30.72C22.46 30.78 22.6 30.84 22.73 30.92C22.84 30.99 22.94 31.06 23.05 31.14C23.17 31.23 23.28 31.34 23.38 31.45C23.47 31.54 23.55 31.64 23.63 31.74C23.72 31.86 23.79 31.99 23.86 32.12C23.92 32.24 23.97 32.36 24.02 32.48C24.11 32.75 24.16 33.01 24.18 33.29C24.18 33.42 24.18 33.55 24.17 33.68C24.16 33.82 24.14 33.95 24.11 34.09C24.08 34.21 24.04 34.34 24 34.46C23.95 34.59 23.89 34.72 23.82 34.84C23.77 34.95 23.7 35.06 23.63 35.16C23.54 35.28 23.44 35.41 23.33 35.51C23.21 35.63 23.09 35.76 22.99 35.9C22.92 35.99 22.85 36.09 22.78 36.19C22.69 36.33 22.61 36.48 22.54 36.63C22.49 36.74 22.44 36.86 22.4 36.97C22.34 37.12 22.3 37.27 22.26 37.42C22.23 37.55 22.21 37.68 22.19 37.81C22.17 37.96 22.16 38.1 22.16 38.25C22.16 38.39 22.17 38.58 22.18 38.72L22.18 47C22.18 47.1 22.18 47.19 22.17 47.29C22.16 47.39 22.14 47.49 22.12 47.59C22.11 47.68 22.08 47.77 22.06 47.86C22.03 47.96 21.99 48.05 21.95 48.15C21.91 48.23 21.87 48.31 21.83 48.39C21.78 48.49 21.73 48.58 21.66 48.67C21.61 48.74 21.56 48.81 21.51 48.88C21.44 48.96 21.36 49.05 21.28 49.12C21.22 49.18 21.15 49.24 21.09 49.3C21 49.37 20.91 49.43 20.82 49.49C20.74 49.54 20.67 49.59 20.59 49.63Q20.44 49.71 20.29 49.77C20.21 49.8 20.12 49.83 20.03 49.86C19.93 49.89 19.83 49.92 19.72 49.94C19.62 49.96 19.53 49.97 19.43 49.98C19.33 49.99 19.23 50 19.13 50C19.02 50 18.92 49.99 18.82 49.98L18.82 49.98Q18.67 49.97 18.53 49.94C18.43 49.92 18.33 49.89 18.23 49.86C18.14 49.83 18.05 49.8 17.96 49.77C17.86 49.73 17.76 49.68 17.66 49.63C17.59 49.59 17.51 49.54 17.43 49.49C17.34 49.43 17.25 49.37 17.16 49.3C17.1 49.24 17.03 49.18 16.97 49.12C16.89 49.04 16.81 48.96 16.74 48.87C16.69 48.81 16.64 48.74 16.59 48.67C16.53 48.58 16.47 48.49 16.42 48.39C16.38 48.31 16.34 48.23 16.31 48.15C16.26 48.06 16.23 47.96 16.2 47.86C16.17 47.77 16.15 47.68 16.13 47.59C16.11 47.49 16.09 47.39 16.08 47.29C16.08 47.19 16.07 47.1 16.07 47L16.07 44.39C16.02 44.39 15.97 44.4 15.93 44.4C15.76 44.42 15.59 44.43 15.43 44.44C15.32 44.44 15.21 44.44 15.1 44.45C14.92 44.45 14.74 44.45 14.55 44.44C14.37 44.44 14.2 44.43 14.02 44.41C13.91 44.41 13.79 44.4 13.68 44.38C13.52 44.37 13.36 44.35 13.19 44.32C13.07 44.3 12.94 44.28 12.82 44.26C12.63 44.23 12.44 44.19 12.26 44.15C12.16 44.12 12.06 44.1 11.97 44.08C11.79 44.03 11.61 43.98 11.43 43.92C11.33 43.89 11.23 43.86 11.13 43.83C10.96 43.77 10.8 43.71 10.63 43.64C10.53 43.6 10.42 43.56 10.32 43.52C10.11 43.43 9.9 43.33 9.69 43.23C9.64 43.2 9.59 43.18 9.53 43.15C9.35 43.06 9.17 42.96 9 42.85C8.92 42.81 8.85 42.77 8.78 42.72C8.61 42.62 8.44 42.51 8.28 42.4C8.2 42.35 8.13 42.29 8.06 42.24C7.91 42.14 7.77 42.03 7.63 41.92C7.55 41.85 7.46 41.78 7.38 41.71C7.22 41.57 7.06 41.43 6.91 41.29C6.85 41.24 6.79 41.18 6.74 41.12C6.6 40.99 6.46 40.85 6.33 40.71C6.27 40.64 6.21 40.57 6.15 40.5C6.02 40.35 5.89 40.19 5.77 40.04C5.71 39.97 5.66 39.9 5.61 39.83C5.49 39.66 5.37 39.5 5.26 39.33C5.22 39.27 5.18 39.22 5.15 39.16C4.27 38.07 3.69 37.49 3.39 37.43C3.21 37.38 2.98 37.3 2.81 37.23C2.71 37.18 2.61 37.13 2.51 37.08C2.44 37.03 2.36 36.98 2.29 36.93C2.19 36.86 2.1 36.79 2.02 36.72C1.95 36.66 1.89 36.6 1.83 36.53C1.75 36.45 1.68 36.37 1.61 36.28C1.56 36.21 1.51 36.13 1.46 36.06C1.4 35.96 1.35 35.87 1.3 35.77C1.26 35.69 1.22 35.6 1.19 35.52C1.15 35.42 1.12 35.32 1.09 35.21C1.07 35.12 1.05 35.03 1.03 34.94C1.02 34.83 1.01 34.73 1 34.63C0.99 34.53 0.99 34.43 1 34.34C1 34.24 1.01 34.14 1.02 34.05C1.04 33.94 1.06 33.84 1.08 33.74C1.1 33.65 1.13 33.56 1.16 33.47C1.2 33.37 1.24 33.27 1.28 33.17C1.32 33.09 1.36 33.01 1.41 32.93C1.47 32.84 1.53 32.74 1.59 32.65C1.65 32.58 1.7 32.51 1.76 32.45C1.84 32.36 1.92 32.28 2 32.21C2.07 32.15 2.14 32.09 2.21 32.04C2.3 31.97 2.39 31.91 2.49 31.85C2.57 31.8 2.65 31.76 2.73 31.72C2.83 31.67 2.93 31.63 3.04 31.59C3.13 31.56 3.22 31.53 3.31 31.51C3.41 31.48 3.52 31.46 3.63 31.44C3.73 31.42 3.83 31.41 3.93 31.41C4.03 31.4 4.13 31.4 4.23 31.4C4.34 31.41 4.44 31.42 4.55 31.43C4.65 31.45 4.83 31.49 4.92 31.51C5.22 31.61 5.51 31.73 5.8 31.86C6.02 31.96 6.23 32.06 6.45 32.18C6.73 32.33 7.01 32.5 7.28 32.68C7.47 32.81 7.65 32.94 7.83 33.09C8.09 33.29 8.34 33.5 8.57 33.73C8.73 33.88 8.89 34.05 9.04 34.21C9.25 34.45 9.46 34.7 9.65 34.96C9.77 35.13 9.89 35.3 10 35.48C11.19 36.95 12.52 37.86 13.99 38.21Q14.98 38.45 16.05 38.34C16.05 37.84 16.09 37.33 16.17 36.84C16.23 36.45 16.32 36.06 16.43 35.68C12.85 34.73 10.05 33.11 8.05 30.8C5.53 27.9 4.27 23.93 4.27 18.88C4.27 18.61 4.28 18.34 4.29 18.07C4.32 17.54 4.38 17.01 4.47 16.48C4.53 16.12 4.6 15.76 4.69 15.41C4.8 14.98 4.93 14.56 5.07 14.15C5.19 13.82 5.32 13.5 5.46 13.18C5.64 12.76 5.85 12.35 6.07 11.95C6.24 11.66 6.41 11.37 6.6 11.09C6.77 10.83 6.96 10.56 7.15 10.31C7.09 10.07 7.04 9.83 7 9.58C6.94 9.24 6.89 8.89 6.86 8.54C6.82 8.16 6.8 7.79 6.8 7.41C6.79 7.04 6.81 6.66 6.84 6.29C6.86 5.93 6.9 5.58 6.96 5.23C7.02 4.84 7.1 4.45 7.2 4.07C7.28 3.74 7.37 3.42 7.48 3.1C7.61 2.72 7.76 2.34 7.92 1.96C7.95 1.87 7.99 1.78 8.03 1.7C8.09 1.59 8.15 1.48 8.22 1.37C8.28 1.28 8.34 1.2 8.41 1.12C8.49 1.02 8.57 0.93 8.67 0.84C8.74 0.77 8.82 0.7 8.91 0.63C9.01 0.56 9.12 0.49 9.23 0.42C9.32 0.37 9.42 0.32 9.51 0.27C9.63 0.22 9.85 0.15 9.97 0.11C12.48 -0.36 15.72 0.59 19.67 2.97C20.72 2.74 21.77 2.57 22.83 2.45C24.09 2.3 25.36 2.23 26.63 2.23C27.91 2.23 29.18 2.3 30.44 2.45C31.5 2.57 32.55 2.74 33.59 2.97C37.55 0.59 40.87 -0.34 43.38 0.13C43.61 0.2 43.83 0.29 44.03 0.4C44.22 0.5 44.39 0.63 44.55 0.77C44.73 0.92 44.89 1.1 45.03 1.28C45.15 1.46 45.25 1.64 45.34 1.84C45.44 2.06 45.53 2.29 45.62 2.52C45.8 2.99 45.95 3.47 46.07 3.96C46.17 4.35 46.25 4.74 46.31 5.13C46.37 5.48 46.41 5.83 46.43 6.18C46.46 6.56 46.47 6.93 46.47 7.31C46.47 7.68 46.45 8.06 46.41 8.43C46.38 8.78 46.33 9.13 46.27 9.47C46.22 9.72 46.17 9.96 46.12 10.2C46.31 10.46 46.5 10.72 46.67 10.99C46.86 11.27 47.03 11.56 47.19 11.85C47.42 12.25 47.62 12.66 47.81 13.08C47.95 13.4 48.08 13.72 48.19 14.05C48.34 14.46 48.47 14.89 48.57 15.31C48.66 15.66 48.74 16.02 48.8 16.38C48.87 16.79 48.92 17.2 48.95 17.61C48.98 18 49 18.39 48.99 18.78C48.99 23.98 47.69 28.04 45.09 30.96C43.1 33.19 40.35 34.75 36.85 35.65C36.87 35.71 36.88 35.76 36.9 35.82C36.99 36.16 37.06 36.51 37.12 36.87C37.18 37.25 37.21 37.63 37.22 38.02C37.24 38.38 37.23 38.75 37.2 39.11L37.2 47C37.2 47.1 37.19 47.19 37.18 47.29C37.17 47.39 37.16 47.49 37.14 47.59C37.12 47.68 37.1 47.77 37.07 47.86C37.04 47.96 37 48.05 36.96 48.15C36.93 48.23 36.89 48.31 36.85 48.39C36.8 48.49 36.74 48.58 36.68 48.67C36.63 48.74 36.58 48.81 36.52 48.88C36.45 48.96 36.38 49.05 36.3 49.12C36.23 49.18 36.17 49.24 36.1 49.3C36.02 49.37 35.93 49.43 35.83 49.49C35.76 49.54 35.68 49.59 35.61 49.63C35.51 49.68 35.41 49.73 35.31 49.77C35.22 49.8 35.13 49.83 35.05 49.86C34.94 49.89 34.84 49.92 34.73 49.94C34.64 49.96 34.54 49.97 34.45 49.98C34.35 49.99 34.24 50 34.14 50C34.04 50 33.94 49.99 33.84 49.98C33.74 49.97 33.64 49.96 33.55 49.94Z" fill="#FFFFFF" fill-opacity="1.000000" fill-rule="evenodd"/>
	</g>
</svg>
