<svg width="239.000000" height="78.000000" viewBox="0 0 239 78" fill="none" xmlns="http://www.w3.org/2000/svg" xmlns:xlink="http://www.w3.org/1999/xlink">
	<desc>
			Created with Pixso.
	</desc>
	<defs/>
	<rect id="logo-color" width="239.000000" height="78.000000" fill="#FFFFFF" fill-opacity="0"/>
	<rect id="画板 6" width="204.428223" height="46.000000" transform="translate(0.000000 16.000000)" fill="#FFFFFF" fill-opacity="0"/>
	<path id="酷码导航" d="M90.21 34.64Q90.18 34.61 90.15 34.59Q90.07 34.54 89.96 34.54L83.61 34.54L83.61 29.37L88.67 29.37Q88.77 29.37 88.84 29.33Q88.88 29.3 88.92 29.26C88.98 29.18 89.01 29.09 89.01 28.99L89.01 26.45C89.01 26.35 88.98 26.26 88.92 26.2Q88.9 26.18 88.88 26.17Q88.8 26.11 88.67 26.11L83.61 26.11L83.61 22.03C83.61 21.94 83.58 21.86 83.5 21.79C83.43 21.73 83.34 21.7 83.23 21.7L80.69 21.7Q80.6 21.7 80.52 21.74L80.52 21.74L80.52 21.74L80.52 21.74L80.52 21.74Q80.48 21.76 80.44 21.79Q80.41 21.82 80.39 21.85Q80.35 21.93 80.35 22.03L80.35 26.11L77.92 26.11L78.6 22.12C78.63 22.01 78.62 21.92 78.59 21.83C78.55 21.74 78.48 21.7 78.37 21.7L75.56 21.7C75.28 21.7 75.13 21.77 75.11 21.92L74.27 27.36C74.22 27.71 74.07 28.11 73.82 28.56Q73.53 29.05 73.16 29.47L73.16 29.47Q73.04 29.62 72.9 29.75L72.26 30.4Q72.14 30.51 72.11 30.64Q72.1 30.69 72.1 30.74Q72.1 30.89 72.14 30.93L73.62 33.02C73.7 33.15 73.81 33.21 73.97 33.21L74.11 33.14L75.11 32.26C75.66 31.81 76.1 31.36 76.41 30.93C76.73 30.5 77 29.98 77.23 29.37L80.35 29.37L80.35 34.54L73.24 34.54Q73.16 34.54 73.09 34.57L73.09 34.57Q73.04 34.6 72.99 34.64C72.93 34.7 72.9 34.78 72.9 34.88L72.9 37.43C72.9 37.53 72.93 37.62 72.99 37.69Q73.04 37.75 73.11 37.78Q73.17 37.81 73.24 37.81L89.96 37.81Q90.06 37.81 90.13 37.76Q90.17 37.74 90.21 37.69C90.27 37.62 90.3 37.53 90.3 37.43L90.3 34.88C90.3 34.78 90.27 34.7 90.21 34.64ZM183.92 24.8C183.86 24.73 183.78 24.7 183.67 24.7L178.01 24.7L178.81 22.03C178.83 21.96 178.8 21.89 178.71 21.81Q178.61 21.72 178.49 21.71Q178.46 21.7 178.43 21.7L175.88 21.7Q175.79 21.7 175.73 21.74Q175.59 21.81 175.54 22.03L174.75 24.7L171.93 24.7Q171.82 24.7 171.75 24.75Q171.71 24.77 171.68 24.8C171.62 24.86 171.59 24.94 171.59 25.04L171.59 37.81L170.26 37.81Q170.17 37.81 170.11 37.84Q170.05 37.86 170 37.91C169.94 37.97 169.91 38.05 169.91 38.15L169.91 40.7C169.91 40.8 169.94 40.89 170 40.97C170.07 41.04 170.16 41.08 170.26 41.08L171.59 41.08L171.59 52.06L170.18 54.49C170.13 54.57 170.12 54.66 170.14 54.76C170.17 54.86 170.23 54.94 170.33 54.99L172.54 56.24C172.61 56.29 172.7 56.3 172.82 56.28C172.93 56.25 173 56.2 173.03 56.13L174.82 53.01C174.84 52.96 174.86 52.87 174.86 52.74L174.86 41.08L180.75 41.08L180.75 50.66C180.75 51.26 180.52 51.79 180.06 52.25C179.6 52.71 179.08 52.94 178.5 52.94L177.1 52.94Q176.98 52.94 176.89 53Q176.87 53.01 176.85 53.03C176.79 53.09 176.76 53.17 176.76 53.27L176.76 55.82C176.76 55.92 176.79 56.01 176.85 56.08C176.91 56.16 177 56.2 177.1 56.2L179.15 56.2C180.04 56.2 180.85 55.97 181.6 55.5C182.35 55.03 182.94 54.41 183.36 53.63C183.8 52.86 184.01 52.03 184.01 51.15L184.01 25.04C184.01 24.94 183.98 24.86 183.92 24.8ZM204.32 27.04C204.26 26.97 204.18 26.94 204.08 26.94L196.25 26.94L196.25 22.03C196.25 21.94 196.22 21.86 196.15 21.79C196.09 21.73 196.01 21.7 195.91 21.7L193.37 21.7C193.26 21.7 193.17 21.73 193.1 21.79Q193.04 21.84 193.02 21.89Q192.98 21.96 192.98 22.03L192.98 26.94L185.12 26.94Q184.99 26.94 184.91 27Q184.89 27.02 184.87 27.04C184.81 27.1 184.77 27.18 184.77 27.29L184.77 29.83C184.77 29.93 184.81 30.02 184.87 30.1Q184.9 30.14 184.95 30.17Q185.02 30.21 185.12 30.21L204.08 30.21C204.18 30.21 204.26 30.17 204.32 30.1C204.39 30.02 204.42 29.93 204.42 29.83L204.42 27.29C204.42 27.18 204.39 27.1 204.32 27.04ZM165.32 36.71C165.42 36.71 165.5 36.74 165.56 36.8C165.63 36.87 165.66 36.95 165.66 37.05L165.66 39.6C165.66 39.7 165.63 39.79 165.56 39.87C165.5 39.94 165.42 39.98 165.32 39.98L139.21 39.98C138.32 39.98 137.5 39.74 136.75 39.27C136.01 38.8 135.42 38.18 134.99 37.41C134.57 36.63 134.35 35.81 134.35 34.92L134.35 23.06C134.35 22.97 134.38 22.88 134.44 22.82C134.51 22.76 134.59 22.72 134.69 22.72L137.24 22.72Q137.39 22.72 137.46 22.8L163.65 22.8C163.75 22.8 163.83 22.83 163.89 22.9C163.95 22.96 163.98 23.04 163.98 23.14L163.98 28.65C163.98 29.54 163.77 30.37 163.33 31.14C162.91 31.91 162.32 32.53 161.57 33Q161.06 33.32 160.51 33.5Q159.85 33.71 159.12 33.71L137.62 33.71L137.62 34.43C137.62 35.04 137.84 35.57 138.29 36.02Q138.76 36.49 139.31 36.64Q139.57 36.71 139.85 36.71L165.32 36.71ZM67.69 30.02L67.69 26.07L71.99 26.07C72.09 26.07 72.17 26.03 72.23 25.96C72.3 25.88 72.33 25.79 72.33 25.69L72.33 23.14Q72.33 23.05 72.29 22.98L72.29 22.98L72.29 22.98Q72.27 22.93 72.23 22.9C72.17 22.83 72.09 22.8 71.99 22.8L56.33 22.8Q56.24 22.8 56.17 22.83Q56.12 22.86 56.09 22.9Q56.06 22.92 56.04 22.96Q56 23.03 56 23.14L56 25.69C56 25.79 56.03 25.88 56.09 25.96Q56.13 26.01 56.19 26.04L56.19 26.04Q56.25 26.07 56.33 26.07L61.2 26.07L61.16 30.02L57.05 30.02Q56.96 30.02 56.88 30.06Q56.84 30.08 56.8 30.12Q56.78 30.13 56.77 30.16Q56.71 30.24 56.71 30.37L56.71 55.82C56.71 55.92 56.74 56.01 56.8 56.08C56.87 56.16 56.95 56.2 57.05 56.2L66.71 56.2C67.59 56.2 68.41 55.97 69.16 55.52C69.91 55.06 70.5 54.44 70.92 53.67C71.36 52.9 71.57 52.06 71.57 51.15L71.57 30.37Q71.57 30.26 71.52 30.18L71.52 30.18Q71.5 30.14 71.47 30.12C71.41 30.05 71.33 30.02 71.23 30.02L67.69 30.02ZM127.37 37.26L127.37 37.26Q127.29 37.2 127.16 37.2L126.1 37.2L126.1 23.18C126.1 23.08 126.07 23 126 22.93C125.94 22.87 125.86 22.84 125.76 22.84L110.33 22.84Q110.24 22.84 110.16 22.88Q110.12 22.9 110.08 22.93C110.02 23 109.99 23.08 109.99 23.18L109.99 25.73C109.99 25.83 110.02 25.92 110.08 26Q110.14 26.05 110.2 26.08L110.2 26.08Q110.26 26.11 110.33 26.11L122.83 26.11L122.83 37.2L114.97 37.2L114.97 29.48C114.97 29.39 114.93 29.3 114.85 29.24C114.78 29.17 114.69 29.14 114.59 29.14L112.04 29.14C111.94 29.14 111.86 29.17 111.79 29.24C111.73 29.3 111.7 29.39 111.7 29.48L111.7 40.09C111.7 40.19 111.73 40.28 111.79 40.36C111.86 40.43 111.94 40.47 112.04 40.47L124.24 40.47L124.24 50.66C124.24 51.26 124.02 51.79 123.57 52.25C123.13 52.71 122.61 52.94 121.99 52.94L113.9 52.94Q113.81 52.94 113.73 52.98Q113.69 53 113.65 53.03C113.59 53.09 113.56 53.17 113.56 53.27L113.56 55.82C113.56 55.92 113.59 56.01 113.65 56.08C113.72 56.16 113.81 56.2 113.9 56.2L122.64 56.2C123.53 56.2 124.34 55.97 125.09 55.52C125.84 55.06 126.43 54.44 126.86 53.67C127.29 52.9 127.51 52.06 127.51 51.15L127.51 37.55C127.51 37.44 127.47 37.36 127.41 37.3Q127.39 37.28 127.37 37.26ZM108.52 23.66C108.46 23.59 108.38 23.56 108.28 23.56L94.25 23.56Q94.17 23.56 94.11 23.59L94.11 23.59Q94.05 23.61 94 23.66C93.94 23.72 93.91 23.8 93.91 23.9L93.91 26.45C93.91 26.55 93.94 26.64 94 26.72Q94.06 26.78 94.12 26.81L94.12 26.81Q94.18 26.83 94.25 26.83L98.36 26.83L96.92 35.83C96.84 36.36 96.7 36.86 96.5 37.31C96.3 37.77 96.05 38.13 95.78 38.38L94.07 39.78C94 39.86 93.96 39.95 93.96 40.05C93.96 40.15 93.98 40.23 94.03 40.28L95.66 42.26C95.76 42.36 95.87 42.41 95.97 42.41Q96.08 42.41 96.19 42.3L97.45 41.27L97.45 55.44C97.45 55.54 97.48 55.63 97.54 55.7C97.61 55.78 97.69 55.82 97.79 55.82L100.34 55.82L100.49 55.79C100.51 55.81 100.55 55.82 100.6 55.82L103.26 55.82C104.15 55.82 104.96 55.59 105.71 55.14C106.46 54.68 107.05 54.06 107.48 53.29C107.91 52.52 108.12 51.68 108.12 50.77L108.12 33.78C108.12 33.68 108.09 33.6 108.03 33.54Q108 33.51 107.97 33.49Q107.89 33.44 107.78 33.44L100.64 33.44L101.63 26.83L108.28 26.83C108.38 26.83 108.46 26.79 108.52 26.72C108.59 26.64 108.63 26.55 108.63 26.45L108.63 23.9C108.63 23.8 108.59 23.72 108.52 23.66ZM63.97 26.07L65.19 26.07L65.19 30.02L63.9 30.02L63.97 26.07ZM158.48 30.44C159.06 30.44 159.58 30.21 160.03 29.75C160.49 29.3 160.72 28.76 160.72 28.16L160.72 26.07L137.62 26.07L137.62 30.44L158.48 30.44ZM180.75 27.96L180.75 37.81L174.86 37.81L174.86 27.96L180.75 27.96ZM180.02 35.88C180.07 35.82 180.1 35.76 180.1 35.68L180.06 35.57L178.65 30.89C178.63 30.84 178.58 30.8 178.52 30.75C178.46 30.69 178.39 30.66 178.32 30.66L178.28 30.66L175.8 31.31C175.61 31.39 175.51 31.51 175.51 31.69L175.51 31.77L176.94 36.37C176.94 36.47 176.98 36.54 177.06 36.59C177.14 36.64 177.24 36.66 177.36 36.66L177.44 36.66L179.83 35.99Q179.95 35.95 180.02 35.88ZM59.6 33.29L61.13 33.29L61.04 39.9Q61.04 40.16 60.98 40.39Q60.74 41.29 59.6 41.95L59.6 33.29ZM66.17 40.72C66.83 41.62 67.67 42.23 68.69 42.56L68.69 46.63L59.6 46.63L59.6 44.31L59.64 44.38Q59.66 44.43 59.7 44.47Q59.79 44.57 59.98 44.57C60.06 44.57 60.11 44.56 60.13 44.53L60.82 44.19C61.52 43.84 62.06 43.53 62.42 43.28C62.8 43.03 63.1 42.68 63.32 42.24Q63.67 41.57 63.67 40.51L63.82 33.29L65.19 33.29L65.19 37.69Q65.19 38.52 65.43 39.27L65.43 39.27Q65.67 40.03 66.17 40.72ZM67.69 37.24L67.69 33.29L68.69 33.29L68.69 39.06Q68.37 38.82 68.14 38.52L68.14 38.52L68.14 38.52Q68.04 38.39 67.96 38.25Q67.78 37.93 67.72 37.58Q67.69 37.41 67.69 37.24ZM204.3 53.03C204.23 52.97 204.14 52.94 204.04 52.94L203.21 52.94C202.62 52.94 202.1 52.71 201.64 52.25C201.19 51.79 200.96 51.26 200.96 50.66L200.96 35.15C200.96 35.07 200.95 35.02 200.93 34.99L200.93 34.61C200.93 34.52 200.89 34.43 200.82 34.35C200.76 34.27 200.68 34.23 200.58 34.23L187.09 34.23Q187.01 34.23 186.94 34.27Q186.89 34.3 186.84 34.35C186.78 34.43 186.75 34.52 186.75 34.61L186.75 51.98L185.34 54.41C185.24 54.59 185.28 54.76 185.46 54.91L187.7 56.2C187.78 56.25 187.87 56.26 187.97 56.24C188.06 56.22 188.14 56.15 188.2 56.05L189.83 53.2C189.83 53.17 189.86 53.11 189.92 53.02C189.99 52.93 190.02 52.82 190.02 52.67L190.02 37.51L197.7 37.51L197.7 51.15Q197.7 51.99 197.94 52.75Q198.09 53.23 198.34 53.67C198.77 54.44 199.36 55.06 200.11 55.52C200.86 55.97 201.67 56.2 202.56 56.2L204.04 56.2C204.14 56.2 204.23 56.17 204.3 56.1C204.38 56.04 204.42 55.96 204.42 55.86L204.42 53.27C204.42 53.17 204.38 53.09 204.3 53.03ZM104.19 51.87C103.75 52.33 103.23 52.56 102.61 52.56L100.72 52.56L100.72 36.71L104.86 36.71L104.86 50.27C104.86 50.88 104.64 51.41 104.19 51.87ZM89.3 40.38C89.24 40.31 89.16 40.28 89.05 40.28L74.15 40.28C74.05 40.28 73.97 40.31 73.91 40.38C73.85 40.44 73.82 40.52 73.82 40.62L73.82 55.82C73.82 55.92 73.85 56.01 73.91 56.08C73.97 56.16 74.05 56.2 74.15 56.2L84.53 56.2C85.42 56.2 86.23 55.97 86.98 55.52C87.73 55.06 88.32 54.44 88.74 53.67C89.18 52.9 89.39 52.06 89.39 51.15L89.39 40.62C89.39 40.52 89.36 40.44 89.3 40.38ZM164.78 42.64Q164.88 42.64 164.95 42.68Q165 42.71 165.03 42.75C165.09 42.83 165.12 42.91 165.12 43.01L165.12 45.56C165.12 45.66 165.09 45.74 165.03 45.81Q165.01 45.83 164.99 45.85L164.99 45.85Q164.91 45.91 164.78 45.91L161.48 45.91L161.48 51.15C161.48 52.03 161.26 52.86 160.83 53.63Q160.51 54.21 160.07 54.67Q159.63 55.14 159.07 55.5C158.32 55.97 157.5 56.2 156.62 56.2L148.75 56.2C148.65 56.2 148.57 56.16 148.5 56.08C148.44 56.01 148.41 55.92 148.41 55.82L148.41 53.27C148.41 53.17 148.44 53.09 148.5 53.03C148.57 52.97 148.65 52.94 148.75 52.94L155.97 52.94Q156.25 52.94 156.51 52.87Q157.06 52.72 157.53 52.25C157.98 51.79 158.21 51.26 158.21 50.66L158.21 45.91L133.59 45.91C133.49 45.91 133.4 45.87 133.32 45.81C133.25 45.74 133.21 45.66 133.21 45.56L133.21 43.01C133.21 42.91 133.25 42.83 133.32 42.75C133.4 42.68 133.49 42.64 133.59 42.64L158.21 42.64L158.21 41.08C158.21 40.98 158.25 40.89 158.32 40.83C158.4 40.77 158.49 40.74 158.59 40.74L161.14 40.74Q161.26 40.74 161.35 40.8Q161.37 40.81 161.39 40.83C161.45 40.89 161.48 40.98 161.48 41.08L161.48 42.64L164.78 42.64ZM177.06 48.37C177.14 48.42 177.24 48.45 177.36 48.45L177.44 48.45L179.83 47.76C179.91 47.74 179.97 47.7 180.02 47.65C180.07 47.6 180.1 47.54 180.1 47.46L180.06 47.34L178.65 42.68C178.63 42.62 178.58 42.57 178.52 42.52C178.46 42.47 178.39 42.44 178.32 42.44L178.28 42.44L175.8 43.09C175.61 43.17 175.51 43.3 175.51 43.47L175.51 43.55L176.94 48.14C176.94 48.25 176.98 48.32 177.06 48.37ZM85.46 52.25C85.01 52.71 84.49 52.94 83.88 52.94L77.08 52.94L77.08 43.55L86.13 43.55L86.13 50.66C86.13 51.26 85.91 51.79 85.46 52.25ZM121.98 48.34C122.04 48.26 122.08 48.17 122.08 48.07L122.08 45.52C122.08 45.42 122.04 45.34 121.98 45.27C121.91 45.21 121.83 45.18 121.73 45.18L109.61 45.18Q109.51 45.18 109.44 45.22Q109.4 45.24 109.36 45.27C109.3 45.34 109.27 45.42 109.27 45.52L109.27 48.07C109.27 48.17 109.3 48.26 109.36 48.34Q109.41 48.39 109.48 48.42L109.48 48.42Q109.54 48.45 109.61 48.45L121.73 48.45C121.83 48.45 121.91 48.41 121.98 48.34ZM143.58 53.35C143.63 53.45 143.66 53.53 143.66 53.58C143.66 53.71 143.61 53.81 143.51 53.88L141.5 55.41C141.42 55.45 141.33 55.48 141.23 55.48C141.13 55.48 141.05 55.44 140.99 55.37L135.75 48.52C135.7 48.42 135.68 48.36 135.68 48.34Q135.68 48.19 135.83 48.03L137.84 46.47Q137.99 46.4 138.13 46.41Q138.14 46.41 138.15 46.42C138.25 46.43 138.33 46.46 138.38 46.51L143.58 53.35ZM68.02 52.25Q67.63 52.65 67.15 52.82Q66.82 52.94 66.44 52.94L59.6 52.94L59.6 49.89L68.69 49.89L68.69 50.66C68.69 51.26 68.46 51.79 68.02 52.25Z" fill="#000000" fill-opacity="1.000000" fill-rule="evenodd"/>
	<rect id="画板 7" width="38.000000" height="46.000000" transform="translate(0.000000 16.000000)" fill="#FFFFFF" fill-opacity="0"/>
	<path id="矢量 1" d="M1.16 43.29C0.17 42.73 -0.09 41.31 0.58 40.11C0.9 39.53 1.38 39.11 1.9 38.9L1.89 38.88L21.8 26.23L21.79 26.24C21.79 26.24 22.89 25.61 23.49 26.01C24.07 26.4 24.68 27.2 24.24 29.57C24.24 29.6 24.22 29.68 24.21 29.71C23.63 32.21 24.45 34.57 26.43 35.7C28.42 36.8 30.85 36.26 32.65 34.46C32.68 34.43 32.74 34.38 32.76 34.35C34.54 32.73 35.53 32.84 36.18 33.13C36.82 33.44 36.87 34.71 36.87 34.71L36.88 34.69L36.58 58.36L36.57 58.37C36.65 58.92 36.55 59.55 36.23 60.13C35.56 61.33 34.22 61.86 33.23 61.3C32.8 61.06 32.53 60.65 32.38 60.17L32.37 60.18C30.06 53.7 27.25 48.44 21.25 45.07L21.2 45.04C15.2 41.67 9.28 42.01 2.56 43.44L2.56 43.43C2.08 43.56 1.59 43.53 1.16 43.29Z" fill="#3D58FF" fill-opacity="1.000000" fill-rule="nonzero"/>
	<path id="矢量 2" d="M35.62 26.75L28.75 22.89C27.81 22.35 27.84 20.98 28.81 20.39L32.34 18.3L35.87 16.21C36.84 15.63 38.03 16.3 37.99 17.41L37.9 21.43L37.8 25.46C37.78 26.57 36.57 27.29 35.62 26.75Z" fill="#3DF8FF" fill-opacity="1.000000" fill-rule="nonzero"/>
</svg>
