<svg width="33" height="33" viewBox="0 0 50 50" fill="none" xmlns="http://www.w3.org/2000/svg" xmlns:xlink="http://www.w3.org/1999/xlink">
	<desc>
			Created with Pixso.
	</desc>
	<defs/>
	<rect id="ico" width="50.000000" height="50.000000" fill="#FFFFFF" fill-opacity="0"/>
	<rect id="画板 7" width="38.000000" height="46.000000" transform="translate(6.000000 2.000000)" fill="#FFFFFF" fill-opacity="0"/>
	<path id="矢量 1" d="M7.16 29.29C6.17 28.73 5.91 27.31 6.58 26.11C6.9 25.53 7.38 25.11 7.9 24.9L7.89 24.88L27.8 12.23L27.79 12.24C27.79 12.24 28.89 11.61 29.49 12.01C30.07 12.4 30.68 13.2 30.24 15.57C30.24 15.6 30.22 15.68 30.21 15.71C29.63 18.21 30.45 20.57 32.43 21.7C34.42 22.8 36.85 22.26 38.65 20.46C38.68 20.43 38.74 20.38 38.76 20.35C40.54 18.73 41.53 18.84 42.18 19.13C42.82 19.44 42.87 20.71 42.87 20.71L42.88 20.69L42.58 44.36L42.57 44.37C42.65 44.92 42.55 45.55 42.23 46.13C41.56 47.33 40.22 47.86 39.23 47.3C38.8 47.06 38.53 46.65 38.38 46.17L38.37 46.18C36.06 39.7 33.25 34.44 27.25 31.07L27.2 31.04C21.2 27.67 15.28 28.01 8.56 29.44L8.56 29.43C8.08 29.56 7.59 29.53 7.16 29.29Z" fill="#3D58FF" fill-opacity="1.000000" fill-rule="nonzero"/>
	<path id="矢量 2" d="M41.62 12.75L34.75 8.89C33.81 8.35 33.84 6.98 34.81 6.39L38.34 4.3L41.87 2.21C42.84 1.63 44.03 2.3 43.99 3.41L43.9 7.43L43.8 11.46C43.78 12.57 42.57 13.29 41.62 12.75Z" fill="#3DF8FF" fill-opacity="1.000000" fill-rule="nonzero"/>
</svg>
