<svg width="50.000000" height="50.000000" viewBox="0 0 50 50" fill="none" xmlns="http://www.w3.org/2000/svg" xmlns:xlink="http://www.w3.org/1999/xlink">
	<desc>
			Created with Pixso.
	</desc>
	<defs>
		<clipPath id="clip11_1">
			<rect id="search" width="50.000000" height="50.000000" fill="white" fill-opacity="0"/>
		</clipPath>
	</defs>
	<g clip-path="url(#clip11_1)">
		<path id="path" d="M38.94 36.73C41.97 33.18 43.69 28.67 43.69 23.92C43.69 13.01 34.84 4.16 23.92 4.16C13.01 4.16 4.16 13.01 4.16 23.92C4.16 34.84 13.01 43.69 23.92 43.69C25.89 43.69 27.81 43.4 29.7 42.83C29.79 42.8 29.89 42.76 29.98 42.71C30.07 42.66 30.15 42.61 30.23 42.54C30.31 42.48 30.38 42.4 30.44 42.32C30.51 42.24 30.56 42.16 30.61 42.07C30.66 41.98 30.7 41.89 30.73 41.79C30.76 41.69 30.78 41.59 30.79 41.49C30.8 41.39 30.8 41.28 30.79 41.18C30.78 41.08 30.76 40.98 30.73 40.88C30.7 40.79 30.66 40.69 30.61 40.6C30.56 40.51 30.5 40.43 30.44 40.35C30.37 40.27 30.3 40.2 30.22 40.13C30.14 40.07 30.06 40.01 29.97 39.96C29.88 39.91 29.79 39.88 29.69 39.85C29.59 39.82 29.49 39.8 29.39 39.78C29.29 39.77 29.19 39.77 29.08 39.78C28.98 39.79 28.88 39.81 28.78 39.84C27.2 40.32 25.58 40.56 23.92 40.56C14.74 40.56 7.29 33.11 7.29 23.92C7.29 14.74 14.74 7.29 23.92 7.29C33.11 7.29 40.56 14.74 40.56 23.92C40.56 28.28 38.84 32.41 35.82 35.51C35.74 35.6 35.66 35.69 35.6 35.79C35.54 35.88 35.48 35.99 35.44 36.1C35.4 36.21 35.36 36.32 35.34 36.43C35.32 36.55 35.31 36.67 35.31 36.78C35.31 36.9 35.32 37.02 35.35 37.13C35.37 37.25 35.4 37.36 35.45 37.47C35.49 37.58 35.55 37.68 35.62 37.78C35.68 37.87 35.76 37.96 35.84 38.05L43.16 45.37C43.23 45.44 43.31 45.51 43.4 45.56C43.48 45.62 43.57 45.67 43.67 45.7C43.76 45.74 43.86 45.77 43.96 45.79C44.06 45.81 44.16 45.82 44.26 45.82C44.37 45.82 44.47 45.81 44.57 45.79C44.67 45.77 44.76 45.74 44.86 45.7C44.95 45.66 45.04 45.61 45.13 45.56C45.21 45.5 45.29 45.43 45.36 45.36C45.43 45.29 45.5 45.21 45.56 45.13C45.61 45.04 45.66 44.95 45.7 44.86C45.74 44.76 45.77 44.67 45.79 44.57C45.81 44.47 45.82 44.37 45.82 44.26C45.82 44.16 45.81 44.06 45.79 43.96C45.77 43.86 45.74 43.76 45.7 43.67C45.67 43.57 45.62 43.48 45.56 43.4C45.51 43.31 45.44 43.23 45.37 43.16L38.94 36.73Z" fill="#3D58FF" fill-opacity="1.000000" fill-rule="nonzero"/>
		<path id="矢量 5" d="M43.55 30.79C44.31 28.63 44.69 26.35 44.69 23.92C44.69 21.06 44.18 18.4 43.17 15.95C42.15 13.51 40.63 11.27 38.61 9.24C36.58 7.22 34.34 5.7 31.9 4.68C29.45 3.67 26.79 3.16 23.92 3.16C21.06 3.16 18.4 3.67 15.95 4.68C13.51 5.7 11.27 7.22 9.24 9.24C7.22 11.27 5.7 13.51 4.68 15.95C3.67 18.4 3.16 21.06 3.16 23.92C3.16 26.79 3.67 29.45 4.68 31.9C5.7 34.34 7.22 36.58 9.24 38.61C11.27 40.63 13.51 42.15 15.95 43.17C18.4 44.18 21.06 44.69 23.92 44.69C24.95 44.69 25.97 44.62 26.97 44.47C27.99 44.32 28.99 44.09 29.99 43.79C30.15 43.74 30.31 43.67 30.45 43.59C30.53 43.55 30.6 43.51 30.67 43.46C30.74 43.41 30.81 43.36 30.87 43.31C30.93 43.26 30.99 43.2 31.05 43.15C31.11 43.09 31.17 43.02 31.22 42.95C31.27 42.89 31.32 42.82 31.37 42.75C31.41 42.68 31.46 42.61 31.5 42.54C31.54 42.46 31.57 42.39 31.6 42.31C31.63 42.24 31.66 42.16 31.69 42.07C31.71 41.99 31.73 41.91 31.75 41.83C31.76 41.75 31.77 41.67 31.78 41.58C31.79 41.5 31.79 41.42 31.79 41.33C31.79 41.25 31.79 41.17 31.78 41.08C31.77 41 31.76 40.92 31.74 40.84C31.73 40.75 31.71 40.67 31.68 40.59C31.66 40.51 31.63 40.43 31.6 40.36C31.57 40.28 31.53 40.2 31.49 40.13C31.45 40.06 31.41 39.99 31.36 39.92C31.32 39.85 31.27 39.78 31.21 39.71C31.16 39.65 31.1 39.59 31.04 39.53C30.98 39.47 30.92 39.41 30.86 39.36C30.79 39.31 30.73 39.26 30.66 39.21C30.59 39.16 30.52 39.12 30.44 39.08C30.37 39.04 30.29 39 30.21 38.97C30.14 38.94 30.06 38.91 29.98 38.89C29.9 38.86 29.82 38.84 29.74 38.83C29.66 38.81 29.57 38.8 29.49 38.79C29.41 38.78 29.32 38.78 29.24 38.78C29.16 38.78 29.07 38.78 28.99 38.79C28.91 38.8 28.82 38.81 28.74 38.82C28.66 38.84 28.58 38.86 28.5 38.88C27.71 39.12 26.92 39.3 26.11 39.41C25.39 39.51 24.66 39.56 23.93 39.56C21.76 39.56 19.76 39.18 17.92 38.42C16.08 37.65 14.39 36.51 12.87 34.98C11.34 33.46 10.2 31.77 9.43 29.93C8.67 28.08 8.29 26.08 8.29 23.92C8.29 21.77 8.67 19.76 9.43 17.92C10.19 16.08 11.34 14.39 12.87 12.87C14.39 11.34 16.08 10.2 17.92 9.43C19.76 8.67 21.77 8.29 23.92 8.29C26.08 8.29 28.08 8.67 29.93 9.43C31.77 10.2 33.46 11.34 34.98 12.87C36.51 14.39 37.65 16.08 38.42 17.92C39.18 19.76 39.56 21.77 39.56 23.92C39.56 25.9 39.23 27.74 38.58 29.46C37.84 31.41 36.68 33.19 35.1 34.82C35.04 34.88 34.98 34.95 34.92 35.02C34.87 35.09 34.81 35.16 34.76 35.24C34.71 35.32 34.67 35.4 34.62 35.48C34.58 35.56 34.54 35.64 34.51 35.73C34.48 35.81 34.45 35.9 34.42 35.99C34.4 36.07 34.37 36.16 34.36 36.25C34.34 36.34 34.33 36.43 34.32 36.52C34.31 36.61 34.31 36.7 34.31 36.79C34.31 36.88 34.32 36.97 34.32 37.06C34.33 37.15 34.35 37.24 34.37 37.33C34.38 37.42 34.41 37.51 34.43 37.6C34.46 37.68 34.49 37.77 34.53 37.85C34.56 37.94 34.6 38.02 34.64 38.1C34.69 38.18 34.73 38.26 34.79 38.33C34.84 38.41 34.89 38.49 34.95 38.56C35.01 38.63 35.07 38.69 35.13 38.75L42.45 46.08C42.58 46.2 42.71 46.31 42.85 46.4C42.92 46.44 42.99 46.49 43.06 46.53C43.14 46.56 43.21 46.6 43.29 46.63C43.37 46.66 43.45 46.69 43.53 46.71C43.61 46.74 43.69 46.76 43.77 46.77C43.85 46.79 43.94 46.8 44.02 46.81C44.1 46.82 44.19 46.82 44.27 46.82C44.35 46.82 44.43 46.81 44.52 46.81C44.6 46.8 44.68 46.79 44.76 46.77C44.84 46.75 44.92 46.73 45 46.71C45.08 46.68 45.16 46.66 45.24 46.62C45.32 46.59 45.39 46.55 45.47 46.52C45.54 46.48 45.61 46.43 45.68 46.39C45.75 46.34 45.82 46.29 45.88 46.24C45.95 46.19 46.01 46.13 46.07 46.07C46.13 46.01 46.19 45.95 46.24 45.88C46.29 45.82 46.34 45.75 46.39 45.68C46.43 45.61 46.48 45.54 46.52 45.47C46.55 45.39 46.59 45.32 46.62 45.24C46.65 45.16 46.68 45.09 46.71 45.01C46.73 44.93 46.75 44.85 46.77 44.76C46.79 44.68 46.8 44.6 46.81 44.51C46.81 44.43 46.82 44.35 46.82 44.27C46.82 44.18 46.82 44.1 46.81 44.01C46.8 43.93 46.79 43.85 46.77 43.77C46.76 43.69 46.74 43.6 46.71 43.52C46.69 43.44 46.66 43.37 46.63 43.29C46.6 43.21 46.56 43.14 46.52 43.06C46.49 42.99 46.44 42.92 46.4 42.85C46.35 42.78 46.31 42.72 46.25 42.65C46.2 42.59 46.14 42.52 46.08 42.46L40.28 36.66C41.73 34.83 42.81 32.87 43.55 30.79ZM41.31 16.72C42.23 18.93 42.69 21.33 42.69 23.92C42.69 26.1 42.35 28.16 41.67 30.1C40.92 32.23 39.75 34.23 38.18 36.08L37.58 36.78L44.66 43.86C44.67 43.88 44.74 43.98 44.75 43.99C44.76 44.01 44.79 44.08 44.8 44.1C44.8 44.11 44.82 44.19 44.82 44.2C44.82 44.22 44.82 44.3 44.82 44.32C44.81 44.33 44.8 44.4 44.8 44.42C44.79 44.44 44.76 44.51 44.75 44.52C44.74 44.54 44.67 44.64 44.65 44.65C44.64 44.66 44.54 44.74 44.52 44.75C44.51 44.76 44.44 44.79 44.42 44.79C44.41 44.8 44.34 44.81 44.32 44.82C44.3 44.82 44.22 44.82 44.21 44.82C44.19 44.81 44.11 44.8 44.1 44.8C44.08 44.79 44.01 44.76 44 44.75C43.96 44.73 43.89 44.69 43.87 44.66L36.55 37.34C36.53 37.32 36.46 37.24 36.45 37.22C36.43 37.2 36.38 37.11 36.37 37.08C36.36 37.06 36.33 36.96 36.33 36.93C36.32 36.91 36.31 36.8 36.31 36.78C36.31 36.75 36.32 36.65 36.32 36.62C36.33 36.6 36.36 36.49 36.37 36.47C36.38 36.45 36.43 36.35 36.44 36.33C36.46 36.31 36.52 36.23 36.54 36.21C38.3 34.39 39.6 32.39 40.44 30.22C41.19 28.26 41.56 26.17 41.56 23.92C41.56 21.49 41.13 19.23 40.27 17.15C39.41 15.08 38.12 13.17 36.4 11.45C34.67 9.73 32.77 8.44 30.7 7.58C28.62 6.72 26.36 6.29 23.92 6.29C21.49 6.29 19.23 6.72 17.15 7.58C15.08 8.44 13.17 9.73 11.45 11.45C9.73 13.17 8.44 15.08 7.58 17.15C6.72 19.23 6.29 21.49 6.29 23.92C6.29 26.36 6.72 28.62 7.58 30.7C8.44 32.77 9.73 34.67 11.45 36.4C13.18 38.12 15.08 39.41 17.16 40.27C19.23 41.13 21.49 41.56 23.92 41.56C24.84 41.56 25.75 41.49 26.65 41.35C27.47 41.23 28.27 41.04 29.07 40.8C29.09 40.8 29.16 40.78 29.18 40.78C29.2 40.78 29.27 40.78 29.29 40.78C29.31 40.78 29.38 40.8 29.4 40.8C29.41 40.81 29.48 40.83 29.5 40.84C29.51 40.86 29.62 40.93 29.63 40.94C29.64 40.96 29.72 41.06 29.73 41.07C29.73 41.09 29.76 41.16 29.77 41.18C29.77 41.19 29.79 41.26 29.79 41.28C29.79 41.3 29.79 41.37 29.79 41.39C29.79 41.41 29.78 41.48 29.77 41.5C29.76 41.52 29.74 41.58 29.73 41.6C29.72 41.62 29.65 41.72 29.63 41.73C29.62 41.74 29.52 41.82 29.5 41.83C28.61 42.1 27.62 42.35 26.71 42.48C25.79 42.62 24.86 42.69 23.92 42.69C21.33 42.69 18.93 42.23 16.72 41.31C14.51 40.4 12.49 39.02 10.66 37.19C8.83 35.36 7.45 33.34 6.54 31.13C5.62 28.92 5.16 26.52 5.16 23.92C5.16 21.33 5.62 18.93 6.54 16.72C7.45 14.51 8.83 12.49 10.66 10.66C12.49 8.83 14.51 7.45 16.72 6.54C18.93 5.62 21.33 5.16 23.92 5.16C26.52 5.16 28.92 5.62 31.13 6.54C33.34 7.45 35.36 8.83 37.19 10.66C39.02 12.49 40.4 14.51 41.31 16.72Z" fill="#3D58FF" fill-opacity="1.000000" fill-rule="evenodd"/>
	</g>
</svg>
