<svg width="24.000000" height="24.000000" viewBox="0 0 24 24" fill="none" xmlns="http://www.w3.org/2000/svg" xmlns:xlink="http://www.w3.org/1999/xlink">
	<desc>
			Created with Pixso.
	</desc>
	<defs/>
	<rect id="close" width="24.000000" height="24.000000" fill="#FFFFFF" fill-opacity="0"/>
	<path id="矢量 7" d="M13.41 12L18.32 7.09C18.74 6.67 18.75 6.03 18.36 5.63C17.96 5.24 17.32 5.25 16.9 5.67L12 10.58L7.09 5.67C6.67 5.25 6.03 5.24 5.63 5.63C5.24 6.03 5.25 6.67 5.67 7.09L10.58 12L5.67 16.9C5.25 17.32 5.24 17.96 5.63 18.36C6.03 18.75 6.67 18.74 7.09 18.32L12 13.41L16.9 18.32C17.32 18.74 17.96 18.75 18.36 18.36C18.75 17.96 18.74 17.32 18.32 16.9L13.41 12Z" fill="#6B6B6B" fill-opacity="1.000000" fill-rule="evenodd"/>
</svg>
