<svg width="32.000000" height="32.000000" viewBox="0 0 32 32" fill="none" xmlns="http://www.w3.org/2000/svg" xmlns:xlink="http://www.w3.org/1999/xlink">
	<desc>
			Created with Pixso.
	</desc>
	<defs>
		<clipPath id="clip2_6">
			<rect id="是否隐藏=否" width="32.000000" height="32.000000" fill="white" fill-opacity="0"/>
		</clipPath>
	</defs>
	<g clip-path="url(#clip2_6)">
		<path id="眼睛" d="M8.50525 8.40936C6.11862 9.94708 3.71307 12.2399 1.28857 15.2878L0.595245 15.8367L0.724548 16L0.595245 16.1633L1.28857 16.7122C3.71307 19.7601 6.11862 22.0529 8.50525 23.5906C10.9731 25.1806 13.446 25.9836 15.924 25.9998C15.9341 25.9998 15.9443 25.9999 15.9545 25.9999C15.9696 26 15.9848 26 16 26C16.0152 26 16.0303 26 16.0455 25.9999C16.0557 25.9999 16.0658 25.9998 16.076 25.9998C18.554 25.9837 21.0269 25.1806 23.4947 23.5906C25.8813 22.0529 28.2869 19.7601 30.7114 16.7122L31.4048 16.1634L31.2754 16L31.4048 15.8366L30.7114 15.2878C28.2869 12.2399 25.8814 9.94708 23.4947 8.40936C21.0269 6.81937 18.554 6.01633 16.076 6.00024L16.076 6.00024C16.0507 6.00009 16.0253 6 16 6C15.9746 6 15.9493 6.00009 15.924 6.00024L15.924 6.00024C13.446 6.01633 10.9731 6.8194 8.50525 8.40936ZM9.58847 21.9094C7.52454 20.5796 5.423 18.6098 3.28394 16C5.423 13.3902 7.52454 11.4204 9.58847 10.0906C11.7517 8.69687 13.8889 8 16 8C18.1111 8 20.2483 8.69687 22.4115 10.0906C24.4755 11.4204 26.577 13.3902 28.716 16C26.577 18.6098 24.4755 20.5796 22.4115 21.9094C20.2483 23.3031 18.1111 24 16 24C13.8889 24 11.7517 23.3031 9.58847 21.9094ZM11.5 16C11.5 13.5147 13.5147 11.5 16 11.5C18.4853 11.5 20.5 13.5147 20.5 16C20.5 18.4853 18.4853 20.5 16 20.5C13.5147 20.5 11.5 18.4853 11.5 16ZM13.5 16C13.5 14.6193 14.6193 13.5 16 13.5C17.3807 13.5 18.5 14.6193 18.5 16C18.5 17.3807 17.3807 18.5 16 18.5C14.6193 18.5 13.5 17.3807 13.5 16Z" clip-rule="evenodd" fill="#A7B6DA" fill-opacity="1.000000" fill-rule="evenodd"/>
	</g>
</svg>
