<svg width="32.000000" height="32.000000" viewBox="0 0 32 32" fill="none" xmlns="http://www.w3.org/2000/svg" xmlns:xlink="http://www.w3.org/1999/xlink">
	<desc>
			Created with Pixso.
	</desc>
	<defs>
		<clipPath id="clip16_28">
			<rect id="copy" width="32.000000" height="32.000000" fill="white" fill-opacity="0"/>
		</clipPath>
	</defs>
	<g clip-path="url(#clip16_28)">
		<path id="path" d="M21.72 7.42L3.96 7.42C2.87 7.42 2 8.31 2 9.42L2 29C2 30.1 2.87 31 3.96 31L21.73 31C22.82 31 23.69 30.1 23.69 29L23.69 9.42C23.69 9.28 23.68 9.15 23.65 9.02C23.63 8.9 23.59 8.77 23.54 8.65C23.49 8.53 23.43 8.41 23.36 8.3C23.29 8.19 23.21 8.09 23.11 8C23.02 7.91 22.92 7.82 22.82 7.75C22.71 7.68 22.6 7.62 22.48 7.57C22.36 7.52 22.23 7.48 22.11 7.45C21.98 7.43 21.85 7.42 21.72 7.42ZM21.07 28.33L4.61 28.33L4.61 10.08L21.08 10.08L21.08 28.33L21.07 28.33Z" fill="#000000" fill-opacity="1.000000" fill-rule="nonzero"/>
		<path id="path" d="M26.51 1L9.15 1C8.43 1 7.84 1.6 7.84 2.33C7.84 3.06 8.43 3.66 9.15 3.66L26.51 3.66C26.99 3.66 27.38 4.06 27.38 4.54L27.38 24.44C27.38 25.17 27.97 25.77 28.69 25.77C29.41 25.77 30 25.17 30 24.44L30 4.54C29.99 2.58 28.43 1 26.51 1Z" fill="#000000" fill-opacity="1.000000" fill-rule="nonzero"/>
	</g>
</svg>
